**ABCDEFGHIJKLMNOPQRSTUVWXYZabcdefghijklmnopqrstuvwxyz**************************
**PARASOLID !"#$%&'()*+,-./:;<=>?@[\]^_`{|}~0123456789**************************
**PART1;
MC=x64/Windows NT;
MC_MODEL=genuineintel family 6 model 7 stepping 2, 12th gen intel(r) core(tm) i7-12700;
MC_ID=m6cow;
OS=windows nt (x64);
OS_RELEASE=6.3 windows 10 pro (build 19045) ;
FRU=mdc_ugii_v7.0_djl_can_vrh;
APPL=unigraphics;
SITE=unknown;
USER=MM11592;
FORMAT=text;
GUISE=transmit;
KEY=NXTEST;
FILE=C:\Users\mm11592\Documents\myFiles2\working\PyFemtetOpt2\PyFemtetPrj\tests\NXFemtetWithProcessMonitor\NXTEST.x_t;
DATE=22-nov-2023;
**PART2;
SCH=SCH_3400176_34001;
USFLD_SIZE=0;
**PART3;
**END_OF_HEADER*****************************************************************
T51 : TRANSMIT FILE created by modeller version 340017623 SCH_3400176_34001_1300
6231 0 12 36 CCCI7 lattice222 0 CCCI4 mesh1006 0 I8 polyline1008 0 CCCCCCCDI5 ow
ner1040 0 CCCI16 boundary_lattice222 0 CCCI13 boundary_mesh1006 0 I17 boundary_p
olyline1008 0 CCCA16 index_map_offset0 0 1 dA9 index_map82 0 A17 node_id_index_m
ap82 0 A20 schema_embedding_map82 0 A5 child12 0 A14 lowest_node_id0 0 1 dA16 me
sh_offset_data206 0 Z1 519 2 3 0 0 0 0 0 0 0 1e3 1e-8 0 0 0 1 0 1 1 4 0 5 6 7 0
 0 8 9 10 0 0 0 0 0 0 0 81 255 1 2 519 11 1 12 0 0 0 13 70 11 CI9 list_type0 0 1
 uI10 notransmit0 0 1 lCCCDCCDI12 finger_index0 0 1 dI12 finger_block1012 0 CZ3
 0 4 T1 0 0 4 20 1 14 14 13 255 4 3 0 1 0 15 0 0 16 0 50 255 5 348 0 17 18 0 0 +
0 .005 .005 -1 0 0 0 0 1 30 255 6 367 0 19 20 0 0 +0 .005 .005 0 -1 0 29 255 7 2
54 0 21 22 0 .03515968284449455 0 .020513476693416 19 9 CCCCCCI5 frame230 0 CA5
 owner12 0 Z8 1 0 1 16 0 23 0 V0 16 255 9 277 24 ?25 0 26 27 0 0 1 18 255 10 91
 0 28 0 29 30 ?1 17 255 28 0 31 32 33 10 34 35 0 36 -18 29 86 0 37 10 38 39 ?1 2
9 30 93 0 10 39 40 .03515968284449455 .005 .020513476693416 29 39 88 0 29 41 30
 .03900453403425135 .005 .01624499461614705 29 40 272 0 42 30 43 0 0 .005 18 42
 232 0 44 45 0 40 ?1 29 43 271 0 45 40 46 0 0 0 18 45 230 0 47 48 42 43 ?1 29 46
 270 0 48 43 49 .0881458980337503 0 0 18 48 228 0 50 51 45 46 ?1 29 49 269 0 51
 46 52 .0908291796067501 0 .001658359213500125 18 51 226 0 53 54 48 49 ?1 29 52
 268 0 54 49 55 .0996832815729998 0 .0193665631459995 18 54 224 0 56 57 51 52 ?1
 29 55 267 0 57 52 58 .1 0 .0207082039324994 18 57 222 0 59 60 54 55 ?1 29 58 26
6 0 60 55 61 .1 0 .05 18 60 220 0 62 63 57 58 ?1 29 61 265 0 63 58 64 0 0 .05 18
 63 218 0 65 66 60 61 ?1 29 64 264 0 66 61 67 0 0 .045 18 66 216 0 68 69 63 64 ?
1 29 67 263 0 69 64 70 .01731310818549175 0 .04067172295362705 18 69 214 0 71 72
 66 67 ?1 29 70 262 0 72 67 73 .01954468308187915 0 .037268098491275 18 72 212 0
 74 75 69 70 ?1 29 73 261 0 75 70 76 .01529694472489765 0 .01178166834938604 18
 75 210 0 77 78 72 73 ?1 29 76 260 0 78 73 79 .01328644625145176 0 .009428815417
15059 18 78 208 0 80 81 75 76 ?1 29 79 259 0 81 76 82 .0491241849383515 0 .04355
490514828005 18 81 206 0 83 84 78 79 ?1 29 82 258 0 84 79 85 .0516897784330136 0
 .045 18 84 204 0 25 86 81 82 ?1 29 85 257 0 86 82 87 .086601033667656 0 .045 18
 86 202 0 88 89 84 85 ?1 29 87 256 0 89 85 22 .0878802913627508 0 .0392864230710
111 18 89 200 0 90 91 86 87 ?1 29 22 255 0 91 87 7 .03900453403425135 0 .0162449
9461614705 18 91 198 0 92 21 89 22 ?1 17 92 0 93 94 95 91 37 96 0 97 +18 21 196
 0 34 98 91 7 ?1 17 34 0 99 97 36 21 28 35 0 33 +18 98 2 0 100 101 21 102 ?1 17
 100 0 103 104 105 98 44 19 0 106 -18 101 5 0 107 108 98 109 ?1 29 102 4 0 98 0
 109 0 .005 .005 29 109 7 0 101 102 110 0 .005 0 29 110 12 0 108 109 111 .088145
8980337503 .005 0 18 108 10 0 112 113 101 110 ?1 29 111 17 0 113 110 114 .090829
1796067501 .005 .001658359213500125 18 113 15 0 115 116 108 111 ?1 29 114 22 0 1
16 111 117 .0996832815729998 .005 .0193665631459995 18 116 20 0 118 119 113 114
 ?1 29 117 27 0 119 114 120 .1 .005 .0207082039324994 18 119 25 0 121 122 116 11
7 ?1 29 120 32 0 122 117 123 .1 .005 .05 18 122 30 0 124 125 119 120 ?1 29 123 3
7 0 125 120 126 0 .005 .05 18 125 35 0 127 128 122 123 ?1 29 126 42 0 128 123 12
9 0 .005 .045 18 128 40 0 130 131 125 126 ?1 29 129 47 0 131 126 132 .0173131081
8549175 .005 .04067172295362705 18 131 45 0 133 134 128 129 ?1 29 132 52 0 134 1
29 135 .01954468308187915 .005 .037268098491275 18 134 50 0 136 137 131 132 ?1 2
9 135 57 0 137 132 138 .01529694472489765 .005 .01178166834938604 18 137 55 0 13
9 140 134 135 ?1 29 138 62 0 140 135 141 .01328644625145176 .005 .00942881541715
059 18 140 60 0 142 143 137 138 ?1 29 141 70 0 143 138 144 .0491241849383515 .00
5 .04355490514828005 18 143 68 0 145 146 140 141 ?1 29 144 73 0 146 141 147 .051
6897784330136 .005 .045 18 146 71 0 148 149 143 144 ?1 29 147 78 0 149 144 41 .0
86601033667656 .005 .045 18 149 76 0 150 38 146 147 ?1 29 41 83 0 38 147 39 .087
8802913627508 .005 .0392864230710111 18 38 81 0 151 29 149 41 ?1 17 151 0 93 95
 94 38 90 152 0 153 -15 255 93 296 0 94 154 0 17 95 0 93 92 151 29 155 156 0 157
 +17 94 0 93 151 92 89 158 159 0 160 -17 90 0 161 162 153 89 151 152 0 94 +16 15
2 275 163 ?90 26 96 164 0 0 1 17 153 0 161 90 150 38 165 166 0 155 +15 161 298 0
 162 167 0 17 150 0 161 153 162 149 88 26 0 168 -17 165 0 169 170 155 149 153 16
6 0 0 -16 166 82 171 ?153 156 172 173 0 0 1 17 155 0 169 165 157 38 95 156 0 0 -
15 169 101 0 174 175 0 17 157 0 169 155 176 29 36 177 0 0 -16 156 87 178 ?95 177
 166 179 0 0 1 81 1 178 457 180 156 0 0 181 182 183 16 177 92 184 ?36 185 156 18
6 0 0 1 30 179 90 0 156 173 186 0 +.0878802913627508 .005 .0392864230710111 -.90
45256429963 0 -.4264192316982555 31 255 173 85 0 166 187 179 0 +.086601033667656
 .005 .042 0 1 0 1 0 612323399573677e-31 .003 31 186 95 0 177 179 188 0 +.037725
2763391566 .005 .018958571545136 0 1 0 1 0 612323399573677e-31 .003 30 188 98 0
 185 186 189 0 +.03515968284449455 .005 .020513476693416 .518301716093344 0 .855
197831554018 16 185 96 190 ?32 19 177 188 0 0 1 30 189 253 0 191 188 192 0 +0 0
 .005 0 0 -1 16 191 194 193 ?194 195 0 189 0 0 1 30 192 252 0 195 189 196 0 +0 0
 0 1 0 0 16 195 192 182 ?197 198 191 192 0 0 1 31 196 251 0 198 192 199 0 +.0881
458980337503 0 .003 0 -1 0 1 0 -612323399573677e-31 .003 16 198 190 200 ?201 202
 195 196 0 0 1 30 199 250 0 202 196 203 0 +.0908291796067501 0 .0016583592135001
2 .4472135954999575 0 .894427190999916 16 202 188 204 ?205 206 198 199 0 0 1 31
 203 249 0 206 199 207 0 +.097 0 .0207082039324994 0 -1 0 1 0 -612323399573677e-
31 .003 16 206 186 208 ?209 210 202 203 0 0 1 30 207 248 0 210 203 211 0 +.1 0 .
0207082039324994 0 0 1 16 210 184 212 ?213 214 206 207 0 0 1 30 211 247 0 214 20
7 215 0 +.1 0 .05 -1 0 0 16 214 182 216 ?217 218 210 211 0 0 1 30 215 246 0 218
 211 219 0 +0 0 .05 0 0 -1 16 218 180 220 ?221 222 214 215 0 0 1 30 219 245 0 22
2 215 223 0 +0 0 .045 .970142500145332 0 -.242535625036333 16 222 178 181 ?224 2
25 218 219 0 0 1 31 223 244 0 225 219 226 0 +.01658550131038275 0 .0377612954531
9105 0 1 0 1 0 612323399573677e-31 .003 16 225 176 227 ?228 229 222 223 0 0 1 30
 226 243 0 229 223 230 0 +.01954468308187915 0 .037268098491275 -.16439898730535
7 0 -.986393923832144 16 229 174 231 ?232 233 225 226 0 0 1 31 230 242 0 233 226
 234 0 +.01233776295340124 0 .01227486531130212 0 1 0 1 0 612323399573677e-31 .0
03 16 233 172 235 ?236 237 229 230 0 0 1 30 234 241 0 237 230 238 0 +.0132864462
5145176 0 .00942881541715059 -.948683298050514 0 -.3162277660168385 16 237 170 2
39 ?240 241 233 234 0 0 1 31 238 240 0 241 234 242 0 +.0516897784330136 0 .042 0
 1 0 1 0 612323399573677e-31 .003 16 241 168 243 ?244 245 237 238 0 0 1 30 242 2
39 0 245 238 246 0 +.0516897784330136 0 .045 1 0 0 16 245 166 247 ?248 249 241 2
42 0 0 1 31 246 238 0 249 242 250 0 +.086601033667656 0 .042 0 1 0 1 0 612323399
573677e-31 .003 16 249 164 251 ?160 159 245 246 0 0 1 30 250 237 0 159 246 252 0
 +.0878802913627508 0 .0392864230710111 -.9045256429963 0 -.4264192316982555 16
 159 162 253 ?158 254 249 250 0 0 1 31 252 236 0 254 250 255 0 +.037725276339156
6 0 .018958571545136 0 1 0 1 0 612323399573677e-31 .003 16 254 160 256 ?257 258
 159 252 0 0 1 30 255 235 0 258 252 259 0 +.03515968284449455 0 .020513476693416
 .518301716093344 0 .855197831554018 16 258 158 260 ?261 262 254 255 0 0 1 30 25
9 349 0 35 255 263 0 +.03515968284449455 .005 .020513476693416 0 -1 0 16 35 273
 264 ?34 96 265 259 0 0 1 30 263 350 0 96 259 164 0 +.03900453403425135 .005 .01
624499461614705 0 -1 0 16 96 274 266 ?92 152 35 263 0 0 1 30 164 351 0 152 263 2
67 0 +.0878802913627508 .005 .0392864230710111 0 -1 0 30 267 352 0 26 164 27 0 +
.086601033667656 .005 .045 0 -1 0 16 26 276 268 ?88 9 152 267 0 0 1 30 27 353 0
 9 267 269 0 +.0516897784330136 .005 .045 0 -1 0 30 269 354 0 265 27 270 0 +.049
1241849383515 .005 .04355490514828005 0 -1 0 16 265 278 271 ?83 35 272 269 0 0 1
 30 270 355 0 273 269 274 0 +.01328644625145176 .005 .00942881541715059 0 -1 0 1
6 273 279 275 ?80 276 19 270 0 0 1 30 274 356 0 276 270 277 0 +.0152969447248976
5 .005 .01178166834938604 0 -1 0 16 276 280 278 ?77 279 273 274 0 0 1 30 277 357
 0 279 274 280 0 +.01954468308187915 .005 .037268098491275 0 -1 0 16 279 281 281
 ?74 282 276 277 0 0 1 30 280 358 0 282 277 283 0 +.01731310818549175 .005 .0406
7172295362705 0 -1 0 16 282 282 284 ?71 285 279 280 0 0 1 30 283 359 0 285 280 2
86 0 +0 .005 .045 0 -1 0 16 285 283 287 ?68 288 282 283 0 0 1 30 286 360 0 288 2
83 289 0 +0 .005 .05 0 -1 0 16 288 284 290 ?65 291 285 286 0 0 1 30 289 361 0 29
1 286 292 0 +.1 .005 .05 0 -1 0 16 291 285 293 ?62 294 288 289 0 0 1 30 292 362
 0 294 289 295 0 +.1 .005 .0207082039324994 0 -1 0 16 294 286 296 ?59 297 291 29
2 0 0 1 30 295 363 0 297 292 298 0 +.0996832815729998 .005 .0193665631459995 0 -
1 0 16 297 287 299 ?56 300 294 295 0 0 1 30 298 364 0 300 295 301 0 +.0908291796
067501 .005 .001658359213500125 0 -1 0 16 300 288 302 ?53 303 297 298 0 0 1 30 3
01 365 0 303 298 20 0 +.0881458980337503 .005 0 0 -1 0 16 303 289 304 ?50 272 30
0 301 0 0 1 30 20 366 0 272 301 6 0 +0 .005 0 0 -1 0 16 272 290 305 ?47 265 303
 20 0 0 1 81 1 305 430 180 272 0 0 306 278 307 17 47 0 103 105 104 45 107 272 0
 308 +15 103 328 0 105 17 0 17 105 0 103 100 47 42 194 191 0 0 -17 104 0 103 47
 100 101 309 262 0 0 +17 107 0 310 311 308 101 47 272 0 312 -17 308 0 310 107 50
 45 197 195 0 194 -15 310 326 0 308 313 0 17 50 0 310 308 311 48 112 303 0 314 +
17 197 0 315 201 194 48 308 195 0 0 +17 194 0 315 197 240 45 105 191 0 0 +15 315
 156 0 194 316 317 17 240 0 315 194 236 42 318 237 0 105 +17 236 0 315 240 232 7
8 319 233 0 0 +17 318 0 320 142 44 78 240 237 0 236 -15 320 304 0 318 321 0 17 1
42 0 320 106 318 140 80 273 0 322 -17 44 0 320 318 106 42 100 19 0 240 +17 106 0
 320 44 142 98 323 324 0 309 +16 19 291 325 ?44 273 185 6 0 0 1 81 1 325 450 180
 19 0 0 227 200 326 80 7 CCCCCDI12 legal_owners0 16 1 lCZ1 180 327 328 9000 1 1
 1 1 1 1 1 1 0 FFFFTFTFFFFFFFFF3 81 1 227 449 180 225 0 0 163 325 329 81 1 200 4
51 180 198 0 0 325 251 330 84 255 32 326 b29b1be44a26ac65de9ab909a028591c81 1 25
1 452 180 249 0 0 200 290 331 84 32 330 8576f50ac1b61cafae8abcbd35aedc9b81 1 290
 453 180 288 0 0 251 332 333 84 32 331 4a16ec45bb8631a2c2add4758b9e885881 1 332
 454 180 334 0 0 290 266 335 84 32 333 ecc37c7d522609dbe06dade754dafa1316 334 36
 332 ?336 337 338 339 0 0 1 81 1 266 455 180 96 0 0 332 181 340 84 32 335 eadc23
e742080a157791b4891059765581 1 181 456 180 222 0 0 266 178 341 84 32 340 7a16049
625e259db44634c9bdffd75f584 32 341 8de8fabad1bc7f313e03b352ba8e8dfe17 336 0 342
 65 124 125 343 334 0 344 +16 337 41 345 ?346 347 334 348 0 0 1 16 338 31 349 ?3
50 334 351 352 0 0 1 30 339 39 0 334 352 348 0 +.1 .005 .05 -1 0 0 30 352 34 0 3
38 353 339 0 +.1 .005 .0207082039324994 0 0 1 30 348 44 0 337 339 354 0 +0 .005
 .05 0 0 -1 30 354 49 0 347 348 355 0 +0 .005 .045 .970142500145332 0 -.24253562
5036333 16 347 46 356 ?357 358 337 354 0 0 1 31 355 54 0 358 354 359 0 +.0165855
0131038275 .005 .03776129545319105 0 1 0 1 0 612323399573677e-31 .003 16 358 51
 360 ?361 362 347 355 0 0 1 30 359 59 0 362 355 363 0 +.01954468308187915 .005 .
037268098491275 -.164398987305357 0 -.986393923832144 16 362 56 364 ?365 366 358
 359 0 0 1 31 363 64 0 366 359 367 0 +.01233776295340124 .005 .01227486531130212
 0 1 0 1 0 612323399573677e-31 .003 16 366 61 368 ?322 324 362 363 0 0 1 30 367
 67 0 324 363 369 0 +.01328644625145176 .005 .00942881541715059 -.94868329805051
4 0 -.3162277660168385 16 324 65 370 ?106 371 366 367 0 0 1 31 369 75 0 371 367
 187 0 +.0516897784330136 .005 .042 0 1 0 1 0 612323399573677e-31 .003 16 371 72
 372 ?373 172 324 369 0 0 1 30 187 80 0 172 369 173 0 +.0516897784330136 .005 .0
45 1 0 0 16 172 77 374 ?168 166 371 187 0 0 1 81 1 374 474 180 172 0 0 216 375 3
76 17 168 0 377 88 148 149 170 172 0 165 +15 377 300 0 378 379 0 17 88 0 377 378
 168 86 150 26 0 162 +17 148 0 377 168 378 146 25 9 0 170 -17 170 0 169 174 165
 146 168 172 0 373 -17 174 0 169 176 170 143 373 371 0 0 -17 373 0 380 25 145 14
6 174 371 0 0 +15 380 302 0 381 15 0 17 25 0 380 381 373 84 148 9 0 378 +17 145
 0 380 373 381 143 83 265 0 32 -17 381 0 380 145 25 81 244 241 0 0 -17 83 0 31 3
3 32 81 145 265 0 261 +17 32 0 31 83 28 143 176 185 0 174 +15 31 292 0 33 382 0
 17 176 0 169 157 174 10 32 185 0 0 -17 33 0 31 28 83 21 261 258 0 257 -14 255 3
82 293 383 ?175 321 31 4 384 +0 0 175 321 23 81 1 383 516 385 382 386 0 387 388
 389 14 175 100 388 ?316 382 390 4 391 -0 0 316 382 23 14 321 305 387 ?382 392 3
20 4 393 +0 0 382 392 23 50 384 330 0 382 394 395 0 +.03515968284449455 .005 .02
0513476693416 .855197831554018 0 -.518301716093344 -.518301716093344 0 -.8551978
31554018 13 23 368 0 0 0 0 0 0 8 15 14 15 303 396 ?379 0 380 4 397 +0 0 379 0 23
 81 1 396 498 385 15 398 0 0 399 400 14 379 301 399 ?167 15 377 4 401 +0 0 167 1
5 23 51 255 397 335 0 15 401 393 0 -.0516897784330136 .005 .042 0 -1 0 .003 0 0
 -1 50 401 334 0 379 402 397 0 +.0516897784330136 .005 .045 0 0 -1 -1 0 0 50 393
 336 0 321 397 403 0 +.01328644625145176 .005 .00942881541715059 -.3162277660168
385 0 .948683298050514 .948683298050514 0 .3162277660168385 51 403 337 0 392 393
 404 0 -.01233776295340124 .005 .01227486531130212 0 -1 0 .003 0 0 -1 14 392 307
 405 ?321 406 407 4 403 +0 0 321 406 23 50 404 338 0 406 403 408 0 +.01954468308
187915 .005 .037268098491275 -.986393923832144 0 .164398987305357 .1643989873053
57 0 .986393923832144 14 406 309 409 ?392 410 411 4 404 +0 0 392 410 23 51 408 3
39 0 410 404 412 0 -.01658550131038275 .005 .03776129545319105 0 -1 0 .003 0 0 -
1 14 410 311 413 ?406 414 415 4 408 +0 0 406 414 23 50 412 340 0 414 408 416 0 +
0 .005 .045 -.242535625036333 0 -.970142500145332 -.970142500145332 0 .242535625
036333 14 414 313 417 ?410 418 419 4 412 +0 0 410 418 23 50 416 341 0 418 412 42
0 0 +0 .005 .05 -1 0 0 0 0 1 14 418 315 421 ?414 422 423 4 416 +0 0 414 422 23 5
0 420 342 0 422 416 424 0 +.1 .005 .05 0 0 1 1 0 0 14 422 317 425 ?418 426 342 4
 420 +0 0 418 426 23 50 424 343 0 426 420 427 0 +.1 .005 .0207082039324994 1 0 0
 0 0 -1 14 426 319 428 ?422 429 430 4 424 +0 0 422 429 23 51 427 344 0 429 424 4
31 0 +.097 .005 .0207082039324994 0 -1 0 .003 0 0 -1 14 429 321 432 ?426 433 434
 4 427 +0 0 426 433 23 50 431 345 0 433 427 435 0 +.0908291796067501 .005 .00165
835921350012 .894427190999916 0 -.4472135954999575 -.4472135954999575 0 -.894427
190999916 14 433 323 436 ?429 437 438 4 431 +0 0 429 437 23 51 435 346 0 437 431
 18 0 +.0881458980337503 .005 .003 0 -1 0 .003 0 0 -1 14 437 325 439 ?433 313 44
0 4 435 +0 0 433 313 23 50 18 347 0 313 435 5 0 +0 .005 0 0 0 -1 -1 0 0 14 313 3
27 441 ?437 17 310 4 18 +0 0 437 17 23 81 1 441 504 385 313 442 0 443 439 444 14
 17 329 443 ?313 445 103 4 5 +0 0 313 445 23 81 1 443 503 385 17 446 0 447 441 4
48 14 445 295 447 ?17 154 99 4 395 +0 0 17 154 23 81 1 447 502 385 445 449 0 450
 443 451 14 154 297 450 ?445 167 93 4 452 +0 0 445 167 23 15 99 294 0 97 445 0 5
1 395 331 0 445 384 452 0 -.0377252763391566 .005 .018958571545136 0 -1 0 .003 0
 0 -1 50 452 332 0 154 395 402 0 +.0878802913627508 .005 .0392864230710111 -.426
4192316982555 0 .9045256429963 .9045256429963 0 .4264192316982555 51 402 333 0 1
67 452 401 0 -.086601033667656 .005 .042 0 -1 0 .003 0 0 -1 14 167 299 453 ?154
 379 161 4 402 +0 0 154 379 23 81 1 453 500 385 167 454 0 399 450 455 80 1 385 0
 456 8001 0 0 0 0 3 5 0 0 0 FFFFTFTFFFFFFFFF2 81 1 454 478 180 167 0 453 457 386
 458 81 1 399 499 385 379 459 0 396 453 460 81 1 450 501 385 154 461 0 453 447 4
62 83 255 3 455 .611764705882353 .658823529411765 .670588235294118 81 1 461 487
 180 154 0 450 442 463 464 83 3 462 .611764705882353 .658823529411765 .670588235
294118 81 1 442 486 180 313 0 441 465 461 466 81 1 463 488 180 316 0 467 461 449
 468 84 32 464 892f43c9f152ffadb7af92e87a0603e614 316 153 467 ?0 175 315 4 394 +
0 0 0 175 23 81 1 467 518 385 316 463 0 388 0 469 81 1 449 489 180 445 0 447 463
 470 471 84 32 468 df0139498feb51a7bb478b7c6a27b0b081 1 470 490 180 437 0 439 44
9 472 473 84 32 471 4e7a8a156a59dfb27438ecd98576fad981 1 439 505 385 437 470 0 4
41 436 474 81 1 472 491 180 410 0 413 470 475 476 84 32 473 77c50d77374c73e02474
d4634c44396181 1 413 512 385 410 472 0 417 409 477 81 1 475 492 180 175 0 388 47
2 478 479 84 32 476 269fc594db40bd188f51183c2404cc8a81 1 388 517 385 175 475 0 3
83 467 480 81 1 478 493 180 433 0 436 475 481 482 84 32 479 b205e1269b5845269c4f
9219ab03674081 1 436 506 385 433 478 0 439 432 483 81 1 481 494 180 406 0 409 47
8 398 484 84 32 482 10af09996c1f4cb5dce7dbb3ea8f8dbb81 1 409 513 385 406 481 0 4
13 405 485 81 1 398 495 180 15 0 396 481 0 486 84 32 484 8613b65f4a9de95c199c715
5025760d884 32 486 99db84453b28672040fcd5db1214e8d081 1 405 514 385 392 487 0 40
9 387 488 83 3 485 .611764705882353 .658823529411765 .670588235294118 81 1 487 4
82 180 392 0 405 489 446 490 81 1 387 515 385 321 465 0 405 383 491 83 3 488 .61
1764705882353 .658823529411765 .670588235294118 81 1 465 485 180 321 0 387 492 4
42 493 83 3 491 .611764705882353 .658823529411765 .670588235294118 81 1 492 484
 180 418 0 421 446 465 494 84 32 493 01d5aa2c414ccd055f16bce9be51324681 1 421 51
0 385 418 492 0 425 417 495 81 1 446 483 180 17 0 443 487 492 496 84 32 494 d2a0
8d03525710cf172e3af575fb861284 32 496 4e07e9661d89bf7e1d79fa0e6e2f973e81 1 425 5
09 385 422 489 0 428 421 497 81 1 417 511 385 414 498 0 421 413 499 83 3 495 .61
1764705882353 .658823529411765 .670588235294118 81 1 498 480 180 414 0 417 386 4
89 500 83 3 499 .611764705882353 .658823529411765 .670588235294118 81 1 386 479
 180 382 0 383 454 498 501 81 1 489 481 180 422 0 425 498 487 502 84 32 500 c151
41772a130dff6560169b49e4e16284 32 502 ad2251102cff0fa712768d8cda87361284 32 501
 4a036a007f1938893eae4bfd842ca42481 1 428 508 385 426 457 0 432 425 503 83 3 497
 .611764705882353 .658823529411765 .670588235294118 81 1 457 477 180 426 0 428 4
59 454 504 81 1 432 507 385 429 375 0 436 428 505 83 3 503 .611764705882353 .658
823529411765 .670588235294118 81 1 375 475 180 429 0 432 374 459 506 83 3 505 .6
11764705882353 .658823529411765 .670588235294118 81 1 459 476 180 379 0 399 375
 457 507 84 32 506 e6fde9736decdfe760bda5433d5f74b784 32 507 1123edb9bd988665d88
c50f9e827cd7184 32 504 2a9a4e85dd8d19477694a4f43b7b909984 32 490 b888c24f54d1bfa
153935323eceda6f783 3 483 .611764705882353 .658823529411765 .670588235294118 83
 3 480 .611764705882353 .658823529411765 .670588235294118 83 3 477 .611764705882
353 .658823529411765 .670588235294118 83 3 474 .611764705882353 .658823529411765
 .670588235294118 83 3 469 .611764705882353 .658823529411765 .670588235294118 50
 394 234 0 316 391 384 0 +.0881458980337503 0 .003 0 -1 0 0 0 -1 50 391 103 0 17
5 0 394 0 +.0881458980337503 .005 .003 0 -1 0 0 0 -1 84 32 466 780f6cb3216561cd5
b6d4a4e0154b54483 3 460 .611764705882353 .658823529411765 .670588235294118 84 32
 458 d95252e55af0cd1647bdacc446275c8a79 255 15 456 SDL/TYSA_COLOUR17 97 0 99 37
 34 91 257 254 0 158 -17 37 0 99 36 97 29 92 96 0 95 -17 257 0 317 261 158 21 97
 254 0 0 +17 158 0 317 257 160 91 94 159 0 0 +15 317 157 0 244 316 0 17 160 0 31
7 158 248 89 162 249 0 0 +17 248 0 317 160 244 86 378 245 0 0 +17 162 0 161 150
 90 86 160 249 0 248 -17 244 0 317 248 261 84 381 241 0 0 +17 378 0 377 148 88 8
4 248 245 0 244 -17 261 0 317 244 257 81 33 258 0 381 +17 36 0 99 34 37 10 157 1
77 0 176 +83 3 451 .611764705882353 .658823529411765 .670588235294118 83 3 448 .
611764705882353 .658823529411765 .670588235294118 83 3 444 .611764705882353 .658
823529411765 .670588235294118 15 440 324 0 314 437 0 17 314 0 440 112 53 48 201
 198 0 197 -17 112 0 440 508 314 108 50 303 0 311 -17 53 0 440 314 508 51 115 30
0 0 509 +17 201 0 315 205 197 51 314 198 0 0 +17 205 0 315 209 201 54 509 202 0
 0 +17 209 0 315 213 205 57 510 206 0 0 +17 509 0 438 115 56 51 205 202 0 201 -1
5 438 322 0 509 433 0 17 115 0 438 511 509 113 53 300 0 508 -17 56 0 438 509 511
 54 118 297 0 510 +17 511 0 438 56 115 116 512 513 0 514 +17 118 0 434 515 510 1
16 56 297 0 511 -17 510 0 434 118 59 54 209 206 0 205 -15 434 320 0 510 429 0 17
 59 0 434 510 515 57 121 294 0 516 +17 515 0 434 59 118 119 514 351 0 517 +17 12
1 0 430 350 516 119 59 294 0 515 -17 516 0 430 121 62 57 213 210 0 209 -15 430 3
18 0 516 426 0 17 62 0 430 516 350 60 124 291 0 518 +17 213 0 315 217 209 60 516
 210 0 0 +17 217 0 315 221 213 63 518 214 0 0 +17 221 0 315 224 217 66 519 218 0
 0 +17 518 0 342 124 65 60 217 214 0 213 -15 342 316 0 518 422 0 17 124 0 342 33
6 518 122 62 291 0 350 -17 65 0 342 518 336 63 127 288 0 519 +17 127 0 423 346 5
19 125 65 288 0 336 -17 519 0 423 127 68 63 221 218 0 217 -15 423 314 0 519 418
 0 17 68 0 423 519 346 66 130 285 0 520 +17 346 0 423 68 127 128 344 337 0 521 +
17 130 0 419 357 520 128 68 285 0 346 -17 520 0 419 130 71 66 224 222 0 221 -15
 419 312 0 520 414 0 17 71 0 419 520 357 69 133 282 0 522 +17 224 0 315 228 221
 69 520 222 0 0 +17 228 0 315 232 224 72 522 225 0 0 +17 232 0 315 236 228 75 52
3 229 0 0 +17 522 0 415 133 74 69 228 225 0 224 -15 415 310 0 522 410 0 17 133 0
 415 361 522 131 71 282 0 357 -17 74 0 415 522 361 72 136 279 0 523 +17 361 0 41
5 74 133 134 524 358 0 525 +17 136 0 411 365 523 134 74 279 0 361 -17 523 0 411
 136 77 72 232 229 0 228 -15 411 308 0 523 406 0 17 77 0 411 523 365 75 139 276
 0 319 +17 365 0 411 77 136 137 525 362 0 526 +17 139 0 407 322 319 137 77 276 0
 365 -17 319 0 407 139 80 75 236 233 0 232 -15 407 306 0 319 392 0 17 80 0 407 3
19 322 78 142 273 0 318 +17 322 0 407 80 139 140 526 366 0 323 +17 526 0 390 525
 323 137 322 366 0 0 -17 323 0 390 526 309 140 106 324 0 0 -15 390 99 0 309 175
 169 17 309 0 390 323 312 98 104 262 0 0 -17 312 0 390 309 527 101 311 528 0 104
 -16 262 6 529 ?104 528 258 530 0 0 1 81 1 529 436 180 262 0 0 256 356 531 16 52
8 11 532 ?311 533 262 534 0 0 1 30 530 9 0 262 0 534 0 +0 .005 .005 0 0 -1 30 53
4 14 0 528 530 535 0 +0 .005 0 1 0 0 31 535 19 0 533 534 536 0 +.088145898033750
3 .005 .003 0 -1 0 1 0 -612323399573677e-31 .003 16 533 16 537 ?508 513 528 535
 0 0 1 30 536 24 0 513 535 353 0 +.0908291796067501 .005 .00165835921350012 .447
2135954999575 0 .894427190999916 16 513 21 538 ?511 351 533 536 0 0 1 31 353 29
 0 351 536 352 0 +.097 .005 .0207082039324994 0 -1 0 1 0 -612323399573677e-31 .0
03 16 351 26 306 ?515 338 513 353 0 0 1 81 1 306 429 180 351 0 0 360 305 539 81
 1 360 428 180 358 0 0 532 306 540 84 32 539 0fbdca65ff98db1504e2b71b5343ab5281
 1 532 427 180 528 0 0 372 360 541 84 32 540 05a7508a32d142d2839a105c7ef1dfcc81
 1 372 426 180 371 0 0 212 532 542 84 32 541 a64e7636fb79bc3bf5056f32bf0e16cc81
 1 212 425 180 210 0 0 296 372 543 84 32 542 e383d8c5284bd8b8f0043df98e98d91a81
 1 296 424 180 294 0 0 239 212 544 84 32 543 07441b6f229a3d9f6903d72fd9b62d6f81
 1 239 423 180 237 0 0 281 296 545 84 32 544 e778d55f322156631d2729b97bca7e7881
 1 281 422 180 279 0 0 260 239 546 84 32 545 096bcf43e3be44591e1508e34db66d9e81
 1 260 421 180 258 0 0 349 281 547 84 32 546 35067d426f96088c61fc25184dc7b3fe81
 1 349 420 180 338 0 0 24 260 548 84 32 547 66984d827bfd6a226de1063563c9627281 1
 24 419 180 9 0 0 364 349 549 84 32 548 4c7bfe3b5f1f038bd355bd2eec86a2da81 1 364
 418 180 362 0 0 0 24 550 84 32 549 22e2075e01d91b5bdce37f977f4ac1ff84 32 550 ec
035558598351805fab40d3ef1a721e81 1 538 467 180 513 0 0 171 368 551 81 1 171 466
 180 166 0 0 220 538 552 81 1 368 468 180 366 0 0 538 271 553 84 32 551 c9c4f3de
4152472e492c5812f1943d5e81 1 271 469 180 265 0 0 368 243 554 84 32 553 3526da1de
00d14ad5804cab62223d1db81 1 243 470 180 241 0 0 271 284 555 84 32 554 bb22c5c6bd
069824e261c36f29da22c181 1 284 471 180 282 0 0 243 345 556 84 32 555 1b8d242bcfe
8a3cae34da408205311b881 1 345 472 180 337 0 0 284 216 557 84 32 556 d6ffc52ea7b9
31f0d214f2e66842814781 1 216 473 180 214 0 0 345 374 558 84 32 557 c055f645bc05f
fa9de139cfe465ea72b84 32 558 d18663142a080831e8fa9f3c4948027881 1 220 465 180 21
8 0 0 302 171 559 84 32 552 112efca197c6d6f2ec412a053b5b9b9481 1 302 464 180 300
 0 0 299 220 560 84 32 559 42168fe728afe757c5614ee578ca96b681 1 299 463 180 297
 0 0 287 302 561 84 32 560 58cb742e4b039e7534f9956cefc3235b81 1 287 462 180 285
 0 0 247 299 562 84 32 561 cbf6218122b14e840f9068a2857e64f781 1 247 461 180 245
 0 0 264 287 563 84 32 562 7af78e8093108bd5cfbdba17a4afb9fb81 1 264 460 180 35 0
 0 370 247 564 84 32 563 080a1491d8fb699bb5fd8093b0a08d2d81 1 370 459 180 324 0
 0 182 264 565 84 32 564 da16b8d9b8d181d86c9ea70367151e8281 1 182 458 180 195 0
 0 178 370 566 84 32 565 1fd9a04b90ec1073bb8e699c8336009584 32 566 faacef1e41a97
3b652db43a837ec7eb481 1 537 447 180 533 0 0 293 163 567 17 508 0 440 53 112 113
 527 533 0 512 +17 527 0 390 312 512 108 508 533 0 0 -17 512 0 390 527 514 113 5
11 513 0 0 -17 514 0 390 512 517 116 515 351 0 0 -17 517 0 390 514 343 119 350 3
38 0 0 -17 343 0 390 517 344 122 336 334 0 0 -17 350 0 430 62 121 122 517 338 0
 343 +17 344 0 390 343 521 125 346 337 0 0 -17 521 0 390 344 524 128 357 347 0 0
 -17 524 0 390 521 525 131 361 358 0 0 -17 357 0 419 71 130 131 521 347 0 524 +1
7 525 0 390 524 526 134 365 362 0 0 -81 1 293 446 180 291 0 0 253 537 568 81 1 1
63 448 180 152 0 0 537 227 569 84 32 567 2e594e67ce415046a6a815d3f1f85da184 32 5
69 b24eb40d45ebfb74fae4d216aea839e181 1 253 445 180 159 0 0 193 293 570 84 32 56
8 f04e5d3bfca4059909dff8b021723f5a81 1 193 444 180 191 0 0 184 253 571 84 32 570
 95abbe04a2d4e9a94893f4a9735a971681 1 184 443 180 177 0 0 204 193 572 84 32 571
 61a6725d6aba0a40ae5b900e614f9c5381 1 204 442 180 202 0 0 275 184 573 84 32 572
 7b8e90a9a725b6d0b83981482ae8afa481 1 275 441 180 273 0 0 231 204 574 84 32 573
 493af1654a5af05bdbc7f1f1e864363881 1 231 440 180 229 0 0 268 275 575 84 32 574
 52adb10d44ebc721db1ac39b1a65d68d81 1 268 439 180 26 0 0 304 231 576 84 32 575 9
b8760815458b7efdd2ef05293471a9181 1 304 438 180 303 0 0 356 268 577 84 32 576 47
0e6f9e0aa930b367401258d72e0b0881 1 356 437 180 347 0 0 529 304 578 84 32 577 f5b
488ecc8d5e382ac9b2bd99682f59384 32 578 ac26b5048f979e2711c47517bd024e4e17 311 0
 310 50 107 108 312 528 0 527 +81 1 256 435 180 254 0 0 190 529 579 84 32 531 82
de80ee6498ca4e1a60f559454c969a81 1 190 434 180 185 0 0 208 256 580 84 32 579 dc4
b21ee401891aabbc19e9ffd9d44db81 1 208 433 180 206 0 0 235 190 581 84 32 580 f133
a34a0a019c9c539cd4ecdc6346e781 1 235 432 180 233 0 0 278 208 582 84 32 581 cc457
ee6cbed0a864b2a68cceb212f4581 1 278 431 180 276 0 0 305 235 583 84 32 582 05532d
324f5145f71464b43e1e8348f784 32 583 d4f5ea3012eeb0c4a463b8859268863b83 3 400 .61
1764705882353 .658823529411765 .670588235294118 83 3 389 .611764705882353 .65882
3529411765 .670588235294118 84 32 376 7df97eefdcb5b8168c640d0057ccf95984 32 329
 943076dadc8e89c1ec16080009dd236f79 15 328 UGS/ObjectState84 32 307 603cd47061ad
0641cf1d39262724867584 32 183 ea1353906f32b3c92a38a8779a792fef19 16 369 0 1 0 8
 4 0 S0 74 4 CI16 index_map_offset0 0 1 dCCZ20 14 4 0 0 12 398 467 2 0 0 0 0 0 0
 0 0 0 0 0 0 0 0 0 0 81 2 12 416 584 1 0 2 0 0 585 586 80 2 584 587 588 8004 0 0
 0 0 3 5 0 0 0 FFTFFFFFFFFFFFFF2 3 83 1 585 7830.64 84 8 586 Kg/Cu M 79 16 588 S
DL/TYSA_DENSITY80 1 11 589 590 9000 0 0 0 0 3 5 0 0 0 FFTFFFFFFFFFFFFF1 82 255 1
 13 129 79 24 590 UG2/BODY_COLOR_ATTRIBUTE1 0 
