**ABCDEFGHIJKLMNOPQRSTUVWXYZabcdefghijklmnopqrstuvwxyz**************************
**PARASOLID !"#$%&'()*+,-./:;<=>?@[\]^_`{|}~0123456789**************************
**PART1;
MC=x64/Windows NT;
MC_MODEL=genuineintel family 6 model 7 stepping 2, 12th gen intel(r) core(tm) i7-12700;
MC_ID=m6cow;
OS=windows nt (x64);
OS_RELEASE=6.3 windows 10 pro (build 19045) ;
FRU=mdc_ugii_v7.0_djl_can_vrh;
APPL=unigraphics;
SITE=unknown;
USER=MM11592;
FORMAT=text;
GUISE=transmit;
KEY=NXTEST;
FILE=C:\Users\mm11592\Documents\myFiles2\working\PyFemtetOpt2\PyFemtetOptGit\NXTEST.x_t;
DATE=13-nov-2023;
**PART2;
SCH=SCH_3400176_34001;
USFLD_SIZE=0;
**PART3;
**END_OF_HEADER*****************************************************************
T51 : TRANSMIT FILE created by modeller version 340017623 SCH_3400176_34001_1300
6231 0 12 36 CCCI7 lattice222 0 CCCI4 mesh1006 0 I8 polyline1008 0 CCCCCCCDI5 ow
ner1040 0 CCCI16 boundary_lattice222 0 CCCI13 boundary_mesh1006 0 I17 boundary_p
olyline1008 0 CCCA16 index_map_offset0 0 1 dA9 index_map82 0 A17 node_id_index_m
ap82 0 A20 schema_embedding_map82 0 A5 child12 0 A14 lowest_node_id0 0 1 dA16 me
sh_offset_data206 0 Z1 518 2 3 0 0 0 0 0 0 0 1e3 1e-8 0 0 0 1 0 1 1 4 0 5 6 7 0
 0 8 9 10 0 0 0 0 0 0 0 81 255 1 2 518 11 1 12 0 0 0 13 70 11 CI9 list_type0 0 1
 uI10 notransmit0 0 1 lCCCDCCDI12 finger_index0 0 1 dI12 finger_block1012 0 CZ3
 0 4 T1 0 0 4 20 1 14 14 13 255 4 3 0 1 0 15 0 0 16 0 50 255 5 348 0 17 18 0 0 +
0 .005 .005 -1 0 0 0 0 1 30 255 6 367 0 19 20 0 0 +0 .005 .005 0 -1 0 29 255 7 2
54 0 21 22 0 .065343197328911 0 .0353265102370813 19 9 CCCCCCI5 frame230 0 CA5 o
wner12 0 Z8 1 0 1 16 0 23 0 V0 16 255 9 277 24 ?25 0 26 27 0 0 1 18 255 10 91 0
 28 0 29 30 ?1 17 255 28 0 31 32 33 10 34 35 0 36 -18 29 86 0 37 10 38 39 ?1 29
 30 93 0 10 39 40 .065343197328911 .005 .0353265102370813 29 39 88 0 29 41 30 .0
629630638288098 .005 .04074076595720245 29 40 272 0 42 30 43 0 0 .005 18 42 232
 0 44 45 0 40 ?1 29 43 271 0 45 40 46 0 0 0 18 45 230 0 47 48 42 43 ?1 29 46 270
 0 48 43 49 .077487464428574 0 0 18 48 228 0 50 51 45 46 ?1 29 49 269 0 51 46 52
 .0794852111061225 0 .000761918631429213 18 51 226 0 53 54 48 49 ?1 29 52 268 0
 54 49 55 .0989977466775486 0 .0181791151890579 18 54 224 0 56 57 51 52 ?1 29 55
 267 0 57 52 58 .1 0 .0204171965576287 18 57 222 0 59 60 54 55 ?1 29 58 266 0 60
 55 61 .1 0 .05 18 60 220 0 62 63 57 58 ?1 29 61 265 0 63 58 64 0 0 .05 18 63 21
8 0 65 66 60 61 ?1 29 64 264 0 66 61 67 0 0 .045 18 66 216 0 68 69 63 64 ?1 29 6
7 263 0 69 64 70 .01731310818549175 0 .04067172295362705 18 69 214 0 71 72 66 67
 ?1 29 70 262 0 72 67 73 .01954468308187915 0 .037268098491275 18 72 212 0 74 75
 69 70 ?1 29 73 261 0 75 70 76 .01529694472489765 0 .01178166834938604 18 75 210
 0 77 78 72 73 ?1 29 76 260 0 78 73 79 .01328644625145176 0 .00942881541715059 1
8 78 208 0 80 81 75 76 ?1 29 79 259 0 81 76 82 .03843207388997435 0 .01756516876
73831 18 81 206 0 83 84 78 79 ?1 29 82 258 0 84 79 85 .03402833709622245 0 .0212
651753213116 18 84 204 0 25 86 81 82 ?1 29 85 257 0 86 82 87 .0394105617840098 0
 .0336442921032225 18 86 202 0 88 89 84 85 ?1 29 87 256 0 89 85 22 .041434165077
6605 0 .0353585412694151 18 89 200 0 90 91 86 87 ?1 29 22 255 0 91 87 7 .0629630
638288098 0 .04074076595720245 18 91 198 0 92 21 89 22 ?1 17 92 0 93 94 95 91 37
 96 0 97 +18 21 196 0 34 98 91 7 ?1 17 34 0 99 97 36 21 28 35 0 33 +18 98 2 0 10
0 101 21 102 ?1 17 100 0 103 104 105 98 44 19 0 106 -18 101 5 0 107 108 98 109 ?
1 29 102 4 0 98 0 109 0 .005 .005 29 109 7 0 101 102 110 0 .005 0 29 110 12 0 10
8 109 111 .077487464428574 .005 0 18 108 10 0 112 113 101 110 ?1 29 111 17 0 113
 110 114 .0794852111061225 .005 .000761918631429213 18 113 15 0 115 116 108 111
 ?1 29 114 22 0 116 111 117 .0989977466775486 .005 .0181791151890579 18 116 20 0
 118 119 113 114 ?1 29 117 27 0 119 114 120 .1 .005 .0204171965576287 18 119 25
 0 121 122 116 117 ?1 29 120 32 0 122 117 123 .1 .005 .05 18 122 30 0 124 125 11
9 120 ?1 29 123 37 0 125 120 126 0 .005 .05 18 125 35 0 127 128 122 123 ?1 29 12
6 42 0 128 123 129 0 .005 .045 18 128 40 0 130 131 125 126 ?1 29 129 47 0 131 12
6 132 .01731310818549175 .005 .04067172295362705 18 131 45 0 133 134 128 129 ?1
 29 132 52 0 134 129 135 .01954468308187915 .005 .037268098491275 18 134 50 0 13
6 137 131 132 ?1 29 135 57 0 137 132 138 .01529694472489765 .005 .01178166834938
604 18 137 55 0 139 140 134 135 ?1 29 138 62 0 140 135 141 .01328644625145176 .0
05 .00942881541715059 18 140 60 0 142 143 137 138 ?1 29 141 70 0 143 138 144 .03
843207388997435 .005 .0175651687673831 18 143 68 0 145 146 140 141 ?1 29 144 73
 0 146 141 147 .03402833709622245 .005 .0212651753213116 18 146 71 0 148 149 143
 144 ?1 29 147 78 0 149 144 41 .0394105617840098 .005 .0336442921032225 18 149 7
6 0 150 38 146 147 ?1 29 41 83 0 38 147 39 .0414341650776605 .005 .0353585412694
151 18 38 81 0 151 29 149 41 ?1 17 151 0 93 95 94 38 90 152 0 153 -15 255 93 296
 0 94 154 0 17 95 0 93 92 151 29 155 156 0 157 +17 94 0 93 151 92 89 158 159 0 1
60 -17 90 0 161 162 153 89 151 152 0 94 +16 152 275 163 ?90 26 96 164 0 0 1 17 1
53 0 161 90 150 38 165 166 0 155 +15 161 298 0 162 167 0 17 150 0 161 153 162 14
9 88 26 0 168 -17 165 0 169 170 155 149 153 166 0 0 -16 166 82 171 ?153 156 172
 173 0 0 1 17 155 0 169 165 157 38 95 156 0 0 -15 169 101 0 174 175 0 17 157 0 1
69 155 176 29 36 177 0 0 -16 156 87 178 ?95 177 166 179 0 0 1 81 1 178 474 180 1
56 0 0 181 182 183 16 177 92 184 ?36 185 156 186 0 0 1 30 179 90 0 156 173 186 0
 +.0414341650776605 .005 .0353585412694151 .970142500145332 0 .242535625036333 3
1 255 173 85 0 166 187 179 0 +.0421617719527695 .005 .03244811376897915 0 1 0 1
 0 612323399573677e-31 .003 31 186 95 0 177 179 188 0 +.0636906707039188 .005 .0
3783033845676645 0 1 0 1 0 612323399573677e-31 .003 30 188 98 0 185 186 189 0 +.
065343197328911 .005 .0353265102370813 -.834609406561725 0 -.550842208330739 16
 185 96 190 ?32 19 177 188 0 0 1 30 189 253 0 191 188 192 0 +0 0 .005 0 0 -1 16
 191 194 193 ?194 195 0 189 0 0 1 30 192 252 0 195 189 196 0 +0 0 0 1 0 0 16 195
 192 197 ?198 199 191 192 0 0 1 31 196 251 0 199 192 200 0 +.0774874644285739 0
 .003 0 -1 0 1 0 -612323399573677e-31 .003 16 199 190 201 ?202 203 195 196 0 0 1
 30 200 250 0 203 196 204 0 +.0794852111061225 0 .000761918631429204 .7460271228
56934 0 .665915559182849 16 203 188 205 ?206 207 199 200 0 0 1 31 204 249 0 207
 200 208 0 +.097 0 .0204171965576287 0 -1 0 1 0 -612323399573677e-31 .003 16 207
 186 209 ?210 211 203 204 0 0 1 30 208 248 0 211 204 212 0 +.1 0 .02041719655762
87 0 0 1 16 211 184 213 ?214 215 207 208 0 0 1 30 212 247 0 215 208 216 0 +.1 0
 .05 -1 0 0 16 215 182 181 ?217 218 211 212 0 0 1 30 216 246 0 218 212 219 0 +0
 0 .05 0 0 -1 16 218 180 220 ?221 222 215 216 0 0 1 30 219 245 0 222 216 223 0 +
0 0 .045 .970142500145332 0 -.242535625036333 16 222 178 224 ?225 226 218 219 0
 0 1 31 223 244 0 226 219 227 0 +.01658550131038275 0 .03776129545319105 0 1 0 1
 0 612323399573677e-31 .003 16 226 176 228 ?229 230 222 223 0 0 1 30 227 243 0 2
30 223 231 0 +.01954468308187915 0 .037268098491275 -.164398987305357 0 -.986393
923832144 16 230 174 232 ?233 234 226 227 0 0 1 31 231 242 0 234 227 235 0 +.012
33776295340124 0 .01227486531130212 0 1 0 1 0 612323399573677e-31 .003 16 234 17
2 236 ?237 238 230 231 0 0 1 30 235 241 0 238 231 239 0 +.01328644625145176 0 .0
0942881541715059 -.948683298050514 0 -.3162277660168385 16 238 170 240 ?241 242
 234 235 0 0 1 31 239 240 0 242 235 243 0 +.03677954726498215 0 .020068996987068
25 0 1 0 1 0 612323399573677e-31 .003 16 242 168 244 ?245 246 238 239 0 0 1 30 2
43 239 0 246 239 247 0 +.03402833709622245 0 .0212651753213116 .3987261114144505
 0 .917070056253235 16 246 166 248 ?249 250 242 243 0 0 1 31 247 238 0 250 243 2
51 0 +.0421617719527695 0 .03244811376897915 0 1 0 1 0 612323399573677e-31 .003
 16 250 164 252 ?160 159 246 247 0 0 1 30 251 237 0 159 247 253 0 +.041434165077
6605 0 .0353585412694151 .970142500145332 0 .242535625036333 16 159 162 254 ?158
 255 250 251 0 0 1 31 253 236 0 255 251 256 0 +.0636906707039188 0 .037830338456
76645 0 1 0 1 0 612323399573677e-31 .003 16 255 160 257 ?258 259 159 253 0 0 1 3
0 256 235 0 259 253 260 0 +.065343197328911 0 .0353265102370813 -.83460940656172
5 0 -.550842208330739 16 259 158 261 ?262 263 255 256 0 0 1 30 260 349 0 35 256
 264 0 +.065343197328911 .005 .0353265102370813 0 -1 0 16 35 273 265 ?34 96 266
 260 0 0 1 30 264 350 0 96 260 164 0 +.0629630638288098 .005 .04074076595720245
 0 -1 0 16 96 274 267 ?92 152 35 264 0 0 1 30 164 351 0 152 264 268 0 +.04143416
50776605 .005 .0353585412694151 0 -1 0 30 268 352 0 26 164 27 0 +.03941056178400
98 .005 .0336442921032225 0 -1 0 16 26 276 269 ?88 9 152 268 0 0 1 30 27 353 0 9
 268 270 0 +.03402833709622245 .005 .0212651753213116 0 -1 0 30 270 354 0 266 27
 271 0 +.03843207388997435 .005 .0175651687673831 0 -1 0 16 266 278 272 ?83 35 2
73 270 0 0 1 30 271 355 0 274 270 275 0 +.01328644625145176 .005 .00942881541715
059 0 -1 0 16 274 279 276 ?80 277 19 271 0 0 1 30 275 356 0 277 271 278 0 +.0152
9694472489765 .005 .01178166834938604 0 -1 0 16 277 280 279 ?77 280 274 275 0 0
 1 30 278 357 0 280 275 281 0 +.01954468308187915 .005 .037268098491275 0 -1 0 1
6 280 281 282 ?74 283 277 278 0 0 1 30 281 358 0 283 278 284 0 +.017313108185491
75 .005 .04067172295362705 0 -1 0 16 283 282 285 ?71 286 280 281 0 0 1 30 284 35
9 0 286 281 287 0 +0 .005 .045 0 -1 0 16 286 283 288 ?68 289 283 284 0 0 1 30 28
7 360 0 289 284 290 0 +0 .005 .05 0 -1 0 16 289 284 291 ?65 292 286 287 0 0 1 30
 290 361 0 292 287 293 0 +.1 .005 .05 0 -1 0 16 292 285 294 ?62 295 289 290 0 0
 1 30 293 362 0 295 290 296 0 +.1 .005 .0204171965576287 0 -1 0 16 295 286 297 ?
59 298 292 293 0 0 1 30 296 363 0 298 293 299 0 +.0989977466775486 .005 .0181791
151890579 0 -1 0 16 298 287 300 ?56 301 295 296 0 0 1 30 299 364 0 301 296 302 0
 +.0794852111061225 .005 .000761918631429213 0 -1 0 16 301 288 303 ?53 304 298 2
99 0 0 1 30 302 365 0 304 299 20 0 +.077487464428574 .005 0 0 -1 0 16 304 289 30
5 ?50 273 301 302 0 0 1 30 20 366 0 273 302 6 0 +0 .005 0 0 -1 0 16 273 290 306
 ?47 266 304 20 0 0 1 81 1 306 430 180 273 0 0 307 279 308 17 47 0 103 105 104 4
5 107 273 0 309 +15 103 328 0 105 17 0 17 105 0 103 100 47 42 194 191 0 0 -17 10
4 0 103 47 100 101 310 263 0 0 +17 107 0 311 312 309 101 47 273 0 313 -17 309 0
 311 107 50 45 198 195 0 194 -15 311 326 0 309 314 0 17 50 0 311 309 312 48 112
 304 0 315 +17 198 0 316 202 194 48 309 195 0 0 +17 194 0 316 198 241 45 105 191
 0 0 +15 316 156 0 194 317 318 17 241 0 316 194 237 42 319 238 0 105 +17 237 0 3
16 241 233 78 320 234 0 0 +17 319 0 321 142 44 78 241 238 0 237 -15 321 304 0 31
9 322 0 17 142 0 321 106 319 140 80 274 0 323 -17 44 0 321 319 106 42 100 19 0 2
41 +17 106 0 321 44 142 98 324 325 0 310 +16 19 291 326 ?44 274 185 6 0 0 1 81 1
 326 450 180 19 0 0 228 201 327 80 7 CCCCCDI12 legal_owners0 16 1 lCZ1 180 328 3
29 9000 1 1 1 1 1 1 1 1 0 FFFFTFTFFFFFFFFF3 81 1 228 449 180 226 0 0 265 326 330
 81 1 201 451 180 199 0 0 326 257 331 84 255 32 327 b29b1be44a26ac65de9ab909a028
591c81 1 257 452 180 255 0 0 201 291 332 84 32 331 9ca675dd253ebb8f3e3842ff9aa78
fb681 1 291 453 180 289 0 0 257 333 334 84 32 332 544f5c8d97f663427aa23cdfdbab44
4981 1 333 454 180 335 0 0 291 272 336 84 32 334 ecc37c7d522609dbe06dade754dafa1
316 335 36 333 ?337 338 339 340 0 0 1 81 1 272 455 180 266 0 0 333 224 341 84 32
 336 eadc23e742080a157791b4891059765581 1 224 456 180 222 0 0 272 190 342 84 32
 341 18575f1e13bb9ab98989ea86af80cd0d81 1 190 457 180 185 0 0 224 197 343 84 32
 342 8de8fabad1bc7f313e03b352ba8e8dfe81 1 197 458 180 195 0 0 190 344 345 84 32
 343 1a522739f8f43391bccb50bca3f731f381 1 344 459 180 325 0 0 197 24 346 84 32 3
45 429aa06e14e7ca5995808bd91ce4d72f16 325 65 344 ?106 347 348 349 0 0 1 81 1 24
 460 180 9 0 0 344 254 350 84 32 346 1fd9a04b90ec1073bb8e699c8336009581 1 254 46
1 180 159 0 0 24 288 351 84 32 350 8a48cf6a07496528415fda8e734aaff281 1 288 462
 180 286 0 0 254 300 352 84 32 351 c1c8130cf882ac955ee94e885502c5b581 1 300 463
 180 298 0 0 288 303 353 84 32 352 7af78e8093108bd5cfbdba17a4afb9fb81 1 303 464
 180 301 0 0 300 220 354 84 32 353 ece81dbb30f47ded799bc20c2e794cfc81 1 220 465
 180 218 0 0 303 184 355 84 32 354 ebcf45836d96046db7ac3287eefe8c5c81 1 184 466
 180 177 0 0 220 356 357 84 32 355 42168fe728afe757c5614ee578ca96b681 1 356 467
 180 358 0 0 184 359 360 84 32 357 1ae2f1f67d67ea172776399d612a383416 358 21 356
 ?361 362 363 364 0 0 1 81 1 359 468 180 348 0 0 356 269 365 84 32 360 b5ed487ed
24a59e58220e674c503b23216 348 61 359 ?323 325 366 367 0 0 1 81 1 269 469 180 26
 0 0 359 252 368 84 32 365 3526da1de00d14ad5804cab62223d1db81 1 252 470 180 250
 0 0 269 285 369 84 32 368 520359a677195c5eaecfef58745ca58781 1 285 471 180 283
 0 0 252 370 371 84 32 369 a7f22ae44cf6d3510a01e8d634bdbbb781 1 370 472 180 338
 0 0 285 181 372 84 32 371 d6ffc52ea7b931f0d214f2e66842814716 338 41 370 ?373 37
4 335 375 0 0 1 81 1 181 473 180 215 0 0 370 178 376 84 32 372 c055f645bc05ffa9d
e139cfe465ea72b84 32 376 d18663142a080831e8fa9f3c4948027817 373 0 377 68 127 128
 378 338 0 379 +16 374 46 380 ?381 382 338 383 0 0 1 30 375 44 0 338 340 383 0 +
0 .005 .05 0 0 -1 30 340 39 0 335 384 375 0 +.1 .005 .05 -1 0 0 30 383 49 0 374
 375 385 0 +0 .005 .045 .970142500145332 0 -.242535625036333 31 385 54 0 382 383
 386 0 +.01658550131038275 .005 .03776129545319105 0 1 0 1 0 612323399573677e-31
 .003 16 382 51 387 ?388 366 374 385 0 0 1 30 386 59 0 366 385 367 0 +.019544683
08187915 .005 .037268098491275 -.164398987305357 0 -.986393923832144 16 366 56 3
89 ?390 348 382 386 0 0 1 31 367 64 0 348 386 349 0 +.01233776295340124 .005 .01
227486531130212 0 1 0 1 0 612323399573677e-31 .003 30 349 67 0 325 367 391 0 +.0
1328644625145176 .005 .00942881541715059 -.948683298050514 0 -.3162277660168385
 31 391 75 0 347 349 187 0 +.03677954726498215 .005 .02006899698706825 0 1 0 1 0
 612323399573677e-31 .003 16 347 72 392 ?393 172 325 391 0 0 1 30 187 80 0 172 3
91 173 0 +.03402833709622245 .005 .0212651753213116 .3987261114144505 0 .9170700
56253235 16 172 77 394 ?168 166 347 187 0 0 1 81 1 394 434 180 172 0 0 209 244 3
95 17 168 0 396 88 148 149 170 172 0 165 +15 396 300 0 397 398 0 17 88 0 396 397
 168 86 150 26 0 162 +17 148 0 396 168 397 146 25 9 0 170 -17 170 0 169 174 165
 146 168 172 0 393 -17 174 0 169 176 170 143 393 347 0 0 -17 393 0 399 25 145 14
6 174 347 0 0 +15 399 302 0 400 15 0 17 25 0 399 400 393 84 148 9 0 397 +17 145
 0 399 393 400 143 83 266 0 32 -17 400 0 399 145 25 81 245 242 0 0 -17 83 0 31 3
3 32 81 145 266 0 262 +17 32 0 31 83 28 143 176 185 0 174 +15 31 292 0 33 401 0
 17 176 0 169 157 174 10 32 185 0 0 -17 33 0 31 28 83 21 262 259 0 258 -14 255 4
01 293 402 ?175 322 31 4 403 +0 0 175 322 23 81 1 402 515 404 401 405 0 406 407
 408 14 175 100 407 ?317 401 409 4 410 -0 0 317 401 23 14 322 305 406 ?401 411 3
21 4 412 +0 0 401 411 23 50 403 330 0 401 413 414 0 +.065343197328911 .005 .0353
265102370813 -.550842208330739 0 .834609406561725 .834609406561725 0 .5508422083
30739 13 23 368 0 0 0 0 0 0 8 15 14 15 303 415 ?398 0 399 4 416 +0 0 398 0 23 81
 1 415 497 404 15 417 0 0 418 419 14 398 301 418 ?167 15 396 4 420 +0 0 167 15 2
3 51 255 416 335 0 15 420 412 0 -.03677954726498215 .005 .02006899698706825 0 -1
 0 .003 0 0 -1 50 420 334 0 398 421 416 0 +.03402833709622245 .005 .021265175321
3116 .917070056253235 0 -.3987261114144505 -.3987261114144505 0 -.91707005625323
5 50 412 336 0 322 416 422 0 +.01328644625145176 .005 .00942881541715059 -.31622
77660168385 0 .948683298050514 .948683298050514 0 .3162277660168385 51 422 337 0
 411 412 423 0 -.01233776295340124 .005 .01227486531130212 0 -1 0 .003 0 0 -1 14
 411 307 424 ?322 425 426 4 422 +0 0 322 425 23 50 423 338 0 425 422 427 0 +.019
54468308187915 .005 .037268098491275 -.986393923832144 0 .164398987305357 .16439
8987305357 0 .986393923832144 14 425 309 428 ?411 429 430 4 423 +0 0 411 429 23
 51 427 339 0 429 423 431 0 -.01658550131038275 .005 .03776129545319105 0 -1 0 .
003 0 0 -1 14 429 311 432 ?425 433 434 4 427 +0 0 425 433 23 50 431 340 0 433 42
7 435 0 +0 .005 .045 -.242535625036333 0 -.970142500145332 -.970142500145332 0 .
242535625036333 14 433 313 436 ?429 437 438 4 431 +0 0 429 437 23 50 435 341 0 4
37 431 439 0 +0 .005 .05 -1 0 0 0 0 1 14 437 315 440 ?433 441 377 4 435 +0 0 433
 441 23 50 439 342 0 441 435 442 0 +.1 .005 .05 0 0 1 1 0 0 14 441 317 443 ?437
 444 445 4 439 +0 0 437 444 23 50 442 343 0 444 439 446 0 +.1 .005 .020417196557
6287 1 0 0 0 0 -1 14 444 319 447 ?441 448 449 4 442 +0 0 441 448 23 51 446 344 0
 448 442 450 0 +.097 .005 .0204171965576287 0 -1 0 .003 0 0 -1 14 448 321 451 ?4
44 452 453 4 446 +0 0 444 452 23 50 450 345 0 452 446 454 0 +.0794852111061225 .
005 .000761918631429204 .665915559182849 0 -.746027122856934 -.746027122856934 0
 -.665915559182849 14 452 323 455 ?448 456 457 4 450 +0 0 448 456 23 51 454 346
 0 456 450 18 0 +.0774874644285739 .005 .003 0 -1 0 .003 0 0 -1 14 456 325 458 ?
452 314 459 4 454 +0 0 452 314 23 50 18 347 0 314 454 5 0 +0 .005 0 0 0 -1 -1 0
 0 14 314 327 460 ?456 17 311 4 18 +0 0 456 17 23 81 1 460 503 404 314 461 0 462
 458 463 14 17 329 462 ?314 464 103 4 5 +0 0 314 464 23 81 1 462 502 404 17 465
 0 466 460 467 14 464 295 466 ?17 154 99 4 414 +0 0 17 154 23 81 1 466 501 404 4
64 468 0 469 462 470 14 154 297 469 ?464 167 93 4 471 +0 0 464 167 23 15 99 294
 0 97 464 0 51 414 331 0 464 403 471 0 -.0636906707039188 .005 .0378303384567664
5 0 -1 0 .003 0 0 -1 50 471 332 0 154 414 421 0 +.0414341650776605 .005 .0353585
412694151 .242535625036333 0 -.970142500145332 -.970142500145332 0 -.24253562503
6333 51 421 333 0 167 471 420 0 -.0421617719527695 .005 .03244811376897915 0 -1
 0 .003 0 0 -1 14 167 299 472 ?154 398 161 4 421 +0 0 154 398 23 81 1 472 499 40
4 167 473 0 418 469 474 80 1 404 0 475 8001 0 0 0 0 3 5 0 0 0 FFFFTFTFFFFFFFFF2
 81 1 473 495 180 167 0 472 476 0 477 81 1 418 498 404 398 478 0 415 472 479 81
 1 469 500 404 154 480 0 472 466 481 83 255 3 474 .611764705882353 .658823529411
765 .670588235294118 81 1 480 476 180 154 0 469 182 482 483 83 3 481 .6117647058
82353 .658823529411765 .670588235294118 81 1 182 475 180 448 0 451 178 480 484 8
1 1 482 477 180 444 0 447 480 468 485 84 32 483 c4f01cbf60c6f0a7d94035634a9a176b
81 1 447 507 404 444 482 0 451 443 486 81 1 468 478 180 464 0 466 482 478 487 84
 32 485 82738bfe398669e606e864ea788f84ab81 1 478 479 180 398 0 418 468 488 489 8
4 32 487 2dc07876cc5955cf5d5cf87f1037d9b381 1 488 480 180 433 0 436 478 490 491
 84 32 489 dadfba08deb23638f986c6b99fc30eb881 1 436 510 404 433 488 0 440 432 49
2 81 1 490 481 180 441 0 443 488 493 494 84 32 491 c15141772a130dff6560169b49e4e
16281 1 443 508 404 441 490 0 447 440 495 81 1 493 482 180 411 0 424 490 465 496
 84 32 494 ad2251102cff0fa712768d8cda87361281 1 424 513 404 411 493 0 428 406 49
7 81 1 465 483 180 17 0 462 493 498 499 84 32 496 b888c24f54d1bfa153935323eceda6
f781 1 498 484 180 437 0 440 465 500 501 84 32 499 4e07e9661d89bf7e1d79fa0e6e2f9
73e81 1 440 509 404 437 498 0 443 436 502 81 1 500 485 180 322 0 406 498 461 503
 84 32 501 d2a08d03525710cf172e3af575fb861281 1 406 514 404 322 500 0 424 402 50
4 81 1 461 486 180 314 0 460 500 405 505 84 32 503 01d5aa2c414ccd055f16bce9be513
24681 1 405 487 180 401 0 402 461 506 507 84 32 505 3dada0e08406ec9b8fb3fe4aef59
5e0381 1 506 488 180 317 0 508 405 417 509 84 32 507 ccdd6845371612c3bde5e5bb8ba
1b58914 317 153 508 ?0 175 316 4 413 +0 0 0 175 23 81 1 508 517 404 317 506 0 40
7 0 510 81 1 417 489 180 15 0 415 506 511 512 84 32 509 a3daaee71cc86ae4ab15b2e8
3e38e92781 1 511 490 180 456 0 458 417 513 514 84 32 512 d664ac531349ac3790526bd
7d657146c81 1 458 504 404 456 511 0 460 455 515 81 1 513 491 180 429 0 432 511 5
16 517 84 32 514 a3106e0502e2922c5674207f15f3b6e781 1 432 511 404 429 513 0 436
 428 518 81 1 516 492 180 175 0 407 513 519 520 84 32 517 269fc594db40bd188f5118
3c2404cc8a81 1 407 516 404 175 516 0 402 508 521 81 1 519 493 180 452 0 455 516
 476 522 84 32 520 071ee15422d291f6573c852a9fd574ba81 1 455 505 404 452 519 0 45
8 451 523 81 1 476 494 180 425 0 428 519 473 524 84 32 522 d2306abb307eedf9bb5e8
5855c5285b181 1 428 512 404 425 476 0 432 424 525 84 32 524 8613b65f4a9de95c199c
7155025760d883 3 525 .611764705882353 .658823529411765 .670588235294118 81 1 451
 506 404 448 182 0 455 447 526 83 3 523 .611764705882353 .658823529411765 .67058
8235294118 83 3 526 .611764705882353 .658823529411765 .670588235294118 83 3 521
 .611764705882353 .658823529411765 .670588235294118 83 3 518 .611764705882353 .6
58823529411765 .670588235294118 83 3 515 .611764705882353 .658823529411765 .6705
88235294118 83 3 510 .611764705882353 .658823529411765 .670588235294118 50 413 2
34 0 317 410 403 0 +.0774874644285739 0 .003 0 -1 0 0 0 -1 50 410 103 0 175 0 41
3 0 +.0774874644285739 .005 .003 0 -1 0 0 0 -1 83 3 504 .611764705882353 .658823
529411765 .670588235294118 83 3 502 .611764705882353 .658823529411765 .670588235
294118 83 3 497 .611764705882353 .658823529411765 .670588235294118 83 3 495 .611
764705882353 .658823529411765 .670588235294118 83 3 492 .611764705882353 .658823
529411765 .670588235294118 83 3 486 .611764705882353 .658823529411765 .670588235
294118 84 32 484 bb59db31e63fce446df403cd2f11686983 3 479 .611764705882353 .6588
23529411765 .670588235294118 84 32 477 39604c14744389e43d81a65015758e1d79 255 15
 475 SDL/TYSA_COLOUR17 97 0 99 37 34 91 258 255 0 158 -17 37 0 99 36 97 29 92 96
 0 95 -17 258 0 318 262 158 21 97 255 0 0 +17 158 0 318 258 160 91 94 159 0 0 +1
5 318 157 0 245 317 0 17 160 0 318 158 249 89 162 250 0 0 +17 249 0 318 160 245
 86 397 246 0 0 +17 162 0 161 150 90 86 160 250 0 249 -17 245 0 318 249 262 84 4
00 242 0 0 +17 397 0 396 148 88 84 249 246 0 245 -17 262 0 318 245 258 81 33 259
 0 400 +17 36 0 99 34 37 10 157 177 0 176 +83 3 470 .611764705882353 .6588235294
11765 .670588235294118 83 3 467 .611764705882353 .658823529411765 .6705882352941
18 83 3 463 .611764705882353 .658823529411765 .670588235294118 15 459 324 0 315
 456 0 17 315 0 459 112 53 48 202 199 0 198 -17 112 0 459 527 315 108 50 304 0 3
12 -17 53 0 459 315 527 51 115 301 0 528 +17 202 0 316 206 198 51 315 199 0 0 +1
7 206 0 316 210 202 54 528 203 0 0 +17 210 0 316 214 206 57 529 207 0 0 +17 528
 0 457 115 56 51 206 203 0 202 -15 457 322 0 528 452 0 17 115 0 457 361 528 113
 53 301 0 527 -17 56 0 457 528 361 54 118 298 0 529 +17 361 0 457 56 115 116 530
 358 0 531 +17 118 0 453 532 529 116 56 298 0 361 -17 529 0 453 118 59 54 210 20
7 0 206 -15 453 320 0 529 448 0 17 59 0 453 529 532 57 121 295 0 533 +17 532 0 4
53 59 118 119 531 362 0 534 +17 121 0 449 535 533 119 59 295 0 532 -17 533 0 449
 121 62 57 214 211 0 210 -15 449 318 0 533 444 0 17 62 0 449 533 535 60 124 292
 0 536 +17 214 0 316 217 210 60 533 211 0 0 +17 217 0 316 221 214 63 536 215 0 0
 +17 221 0 316 225 217 66 537 218 0 0 +17 536 0 445 124 65 60 217 215 0 214 -15
 445 316 0 536 441 0 17 124 0 445 337 536 122 62 292 0 535 -17 65 0 445 536 337
 63 127 289 0 537 +17 337 0 445 65 124 125 538 335 0 378 +17 127 0 377 373 537 1
25 65 289 0 337 -17 537 0 377 127 68 63 221 218 0 217 -15 377 314 0 537 437 0 17
 68 0 377 537 373 66 130 286 0 539 +17 130 0 438 381 539 128 68 286 0 373 -17 53
9 0 438 130 71 66 225 222 0 221 -15 438 312 0 539 433 0 17 71 0 438 539 381 69 1
33 283 0 540 +17 225 0 316 229 221 69 539 222 0 0 +17 229 0 316 233 225 72 540 2
26 0 0 +17 233 0 316 237 229 75 541 230 0 0 +17 540 0 434 133 74 69 229 226 0 22
5 -15 434 310 0 540 429 0 17 133 0 434 388 540 131 71 283 0 381 -17 74 0 434 540
 388 72 136 280 0 541 +17 388 0 434 74 133 134 542 382 0 543 +17 136 0 430 390 5
41 134 74 280 0 388 -17 541 0 430 136 77 72 233 230 0 229 -15 430 308 0 541 425
 0 17 77 0 430 541 390 75 139 277 0 320 +17 390 0 430 77 136 137 543 366 0 544 +
17 139 0 426 323 320 137 77 277 0 390 -17 320 0 426 139 80 75 237 234 0 233 -15
 426 306 0 320 411 0 17 80 0 426 320 323 78 142 274 0 319 +17 323 0 426 80 139 1
40 544 348 0 324 +17 544 0 409 543 324 137 323 348 0 0 -17 324 0 409 544 310 140
 106 325 0 0 -15 409 99 0 310 175 169 17 310 0 409 324 313 98 104 263 0 0 -17 31
3 0 409 310 545 101 312 546 0 104 -16 263 6 547 ?104 546 259 548 0 0 1 81 1 547
 436 180 263 0 0 244 380 549 16 546 11 550 ?312 363 263 551 0 0 1 30 548 9 0 263
 0 551 0 +0 .005 .005 0 0 -1 30 551 14 0 546 548 552 0 +0 .005 0 1 0 0 31 552 19
 0 363 551 364 0 +.0774874644285739 .005 .003 0 -1 0 1 0 -612323399573677e-31 .0
03 16 363 16 553 ?527 358 546 552 0 0 1 30 364 24 0 358 552 554 0 +.079485211106
1225 .005 .000761918631429204 .746027122856934 0 .665915559182849 31 554 29 0 36
2 364 384 0 +.097 .005 .0204171965576287 0 -1 0 1 0 -612323399573677e-31 .003 16
 362 26 307 ?532 339 358 554 0 0 1 30 384 34 0 339 554 340 0 +.1 .005 .020417196
5576287 0 0 1 16 339 31 555 ?535 335 362 384 0 0 1 81 1 555 420 180 339 0 0 163
 248 556 17 535 0 449 62 121 122 534 339 0 538 +17 534 0 409 531 538 119 535 339
 0 0 -17 538 0 409 534 378 122 337 335 0 0 -17 378 0 409 538 379 125 373 338 0 0
 -17 379 0 409 378 542 128 381 374 0 0 -17 542 0 409 379 543 131 388 382 0 0 -17
 381 0 438 71 130 131 379 374 0 542 +17 543 0 409 542 544 134 390 366 0 0 -17 53
1 0 409 530 534 116 532 362 0 0 -17 530 0 409 545 531 113 361 358 0 0 -17 545 0
 409 313 530 108 527 363 0 0 -17 527 0 459 53 112 113 545 363 0 530 +81 1 163 41
9 180 152 0 0 389 555 557 81 1 248 421 180 246 0 0 555 282 558 84 32 556 11ed993
05d270ff36631efb2203b571781 1 282 422 180 280 0 0 248 240 559 84 32 558 af0ec37c
14a7a8929e58976a136d360081 1 240 423 180 238 0 0 282 297 560 84 32 559 35067d426
f96088c61fc25184dc7b3fe81 1 297 424 180 295 0 0 240 213 561 84 32 560 096bcf43e3
be44591e1508e34db66d9e81 1 213 425 180 211 0 0 297 171 562 84 32 561 fa8db2e2cec
5c1ffeb9a4ea026d3782781 1 171 426 180 166 0 0 213 550 563 84 32 562 61298b1ea7e4
0775fc7338339856635481 1 550 427 180 546 0 0 171 387 564 84 32 563 ed74f25f0d6fb
135a5b9f9222d81a74081 1 387 428 180 382 0 0 550 307 565 84 32 564 7d99e3111bbb6b
39e6c1ffcd00e1277381 1 307 429 180 362 0 0 387 306 566 84 32 565 05a7508a32d142d
2839a105c7ef1dfcc84 32 566 706058870ea1345ab464298c1377378581 1 389 418 180 366
 0 0 0 163 567 84 32 557 b115a0448cccfbf6113f8997e17e166984 32 567 ec03555859835
1805fab40d3ef1a721e81 1 553 447 180 363 0 0 294 265 568 81 1 294 446 180 292 0 0
 261 553 569 81 1 265 448 180 35 0 0 553 228 570 84 32 568 0717fae6a9f1696ecb08d
55fba6216dc84 32 570 aab8c3cf3f1d4f2f963b48807854c07f81 1 261 445 180 259 0 0 19
3 294 571 84 32 569 f04e5d3bfca4059909dff8b021723f5a81 1 193 444 180 191 0 0 392
 261 572 84 32 571 e49d3159dae9bfe10003438414bed43d81 1 392 443 180 347 0 0 205
 193 573 84 32 572 61a6725d6aba0a40ae5b900e614f9c5381 1 205 442 180 203 0 0 276
 392 574 84 32 573 8024972fed51c9e99804fb534eeedfd181 1 276 441 180 274 0 0 232
 205 575 84 32 574 56f43e2f98c3d0b7db89c15d5c47409381 1 232 440 180 230 0 0 267
 276 576 84 32 575 52adb10d44ebc721db1ac39b1a65d68d81 1 267 439 180 96 0 0 305 2
32 577 84 32 576 9b8760815458b7efdd2ef05293471a9181 1 305 438 180 304 0 0 380 26
7 578 84 32 577 e99e12e564307d4851056f2b30265e3881 1 380 437 180 374 0 0 547 305
 579 84 32 578 6ff945176d209a7de45711abe14af19f84 32 579 ac26b5048f979e2711c4751
7bd024e4e17 312 0 311 50 107 108 313 546 0 545 +81 1 244 435 180 242 0 0 394 547
 580 84 32 549 82de80ee6498ca4e1a60f559454c969a84 32 580 e7a7b299ca9f12670c25322
112041df783 3 419 .611764705882353 .658823529411765 .670588235294118 83 3 408 .6
11764705882353 .658823529411765 .670588235294118 81 1 209 433 180 207 0 0 236 39
4 581 84 32 395 1af1eaa4b7c0aa9ba071979c8889f89381 1 236 432 180 234 0 0 279 209
 582 84 32 581 116afee382062a325e45aec837a5e94e81 1 279 431 180 277 0 0 306 236
 583 84 32 582 05532d324f5145f71464b43e1e8348f784 32 583 d4f5ea3012eeb0c4a463b88
59268863b84 32 330 943076dadc8e89c1ec16080009dd236f79 15 329 UGS/ObjectState84 3
2 308 603cd47061ad0641cf1d39262724867584 32 183 34cb56d9c825359451ce739ba506ce49
19 16 369 0 1 0 8 4 0 S0 74 4 CI16 index_map_offset0 0 1 dCCZ20 14 4 0 0 12 473
 508 2 0 0 0 0 0 0 0 0 0 0 0 0 0 0 0 0 81 2 12 416 584 1 0 2 0 0 585 586 80 2 58
4 587 588 8004 0 0 0 0 3 5 0 0 0 FFTFFFFFFFFFFFFF2 3 83 1 585 7830.64 84 8 586 K
g/Cu M 79 16 588 SDL/TYSA_DENSITY80 1 11 589 590 9000 0 0 0 0 3 5 0 0 0 FFTFFFFF
FFFFFFFF1 82 255 1 13 129 79 24 590 UG2/BODY_COLOR_ATTRIBUTE1 0 
