**ABCDEFGHIJKLMNOPQRSTUVWXYZabcdefghijklmnopqrstuvwxyz**************************
**PARASOLID !"#$%&'()*+,-./:;<=>?@[\]^_`{|}~0123456789**************************
**PART1;
MC=x64/Windows NT;
MC_MODEL=genuineintel family 6 model 7 stepping 2, 12th gen intel(r) core(tm) i7-12700;
MC_ID=m6cow;
OS=windows nt (x64);
OS_RELEASE=6.3 windows 10 pro (build 19045) ;
FRU=mdc_ugii_v7.0_djl_can_vrh;
APPL=unigraphics;
SITE=unknown;
USER=mm11592;
FORMAT=text;
GUISE=transmit;
KEY=model1;
FILE=E:\pyfemtet\pyfemtet\pyfemtet\opt\interface\nx_interface\model1.x_t;
DATE=25-mar-2025;
**PART2;
SCH=SCH_3400176_34001;
USFLD_SIZE=0;
**PART3;
**END_OF_HEADER*****************************************************************
T51 : TRANSMIT FILE created by modeller version 340017623 SCH_3400176_34001_1300
6231 0 12 36 CCCI7 lattice222 0 CCCI4 mesh1006 0 I8 polyline1008 0 CCCCCCCDI5 ow
ner1040 0 CCCI16 boundary_lattice222 0 CCCI13 boundary_mesh1006 0 I17 boundary_p
olyline1008 0 CCCA16 index_map_offset0 0 1 dA9 index_map82 0 A17 node_id_index_m
ap82 0 A20 schema_embedding_map82 0 A5 child12 0 A14 lowest_node_id0 0 1 dA16 me
sh_offset_data206 0 Z1 136 2 3 0 0 0 0 0 0 0 1e3 1e-8 0 0 0 1 0 1 1 4 0 5 6 7 0
 0 8 9 10 0 0 0 0 0 0 0 81 255 1 2 136 11 1 12 0 0 0 13 70 11 CI9 list_type0 0 1
 uI10 notransmit0 0 1 lCCCDCCDI12 finger_index0 0 1 dI12 finger_block1012 0 CZ3
 0 4 T1 0 0 4 20 1 14 14 13 255 4 91 0 1 0 15 0 0 16 0 50 255 5 86 0 15 17 0 0 +
0 .01 .01 1 0 0 0 0 -1 30 255 6 90 0 18 19 0 0 +0 .01 .01 0 0 -1 29 255 7 67 0 2
0 21 0 .02 .01 0 19 9 CCCCCCI5 frame230 0 CA5 owner12 0 Z8 1 0 1 16 0 22 0 V0 16
 255 9 73 23 ?24 0 25 19 0 0 1 18 255 10 15 0 26 0 27 28 ?1 17 255 26 0 29 30 31
 10 32 33 0 34 +18 27 10 0 31 10 35 36 ?1 29 28 17 0 10 36 37 .02 .01 .01 29 36
 12 0 27 38 28 .02 0 .01 29 37 70 0 39 28 40 0 .01 0 18 39 60 0 41 42 0 37 ?1 29
 40 69 0 42 37 21 0 0 0 18 42 58 0 43 44 39 40 ?1 29 21 68 0 44 40 7 .02 0 0 18
 44 56 0 45 20 42 21 ?1 17 45 0 46 47 24 44 43 48 0 49 +18 20 54 0 50 51 44 7 ?1
 17 50 0 52 34 49 20 53 54 0 55 +18 51 2 0 30 35 20 56 ?1 17 30 0 29 57 26 51 58
 59 0 60 +18 35 5 0 61 27 51 38 ?1 29 56 4 0 51 0 38 0 .01 .01 29 38 7 0 35 56 3
6 0 0 .01 17 61 0 46 24 47 35 31 62 0 57 -15 255 46 79 0 45 63 0 17 24 0 46 45 6
1 42 64 9 0 65 +17 47 0 46 61 45 27 49 25 0 32 -17 31 0 29 26 57 27 61 62 0 47 +
16 62 11 66 ?31 33 67 68 0 0 1 17 57 0 29 31 30 35 69 67 0 64 +15 29 23 0 57 70
 0 17 69 0 71 72 64 51 57 67 0 0 -16 67 6 73 ?57 62 74 75 0 0 1 17 64 0 71 69 65
 35 24 9 0 0 -15 71 81 0 65 15 0 17 65 0 71 64 72 42 76 77 0 0 +17 72 0 71 65 69
 39 60 18 0 76 +17 76 0 78 79 43 39 65 77 0 0 -16 77 52 80 ?65 48 0 81 0 0 1 81
 1 80 115 82 77 0 0 23 73 83 16 48 50 84 ?45 54 77 85 0 0 1 30 81 66 0 77 86 85
 0 +0 .01 0 0 -1 0 30 86 22 0 59 87 81 0 +.02 .01 .01 -1 0 0 30 85 65 0 48 81 88
 0 +0 0 0 1 0 0 30 88 64 0 54 85 89 0 +.02 0 0 0 1 0 16 54 48 90 ?50 74 48 88 0
 0 1 30 89 63 0 74 88 91 0 +.02 .01 0 -1 0 0 16 74 46 92 ?41 67 54 89 0 0 1 30 9
1 87 0 93 89 94 0 +.02 .01 .01 0 0 -1 16 93 71 95 ?55 25 18 91 0 0 1 30 94 88 0
 25 91 19 0 +.02 0 .01 0 0 -1 16 25 72 96 ?49 9 93 94 0 0 1 30 19 89 0 9 94 6 0
 +0 0 .01 0 0 -1 81 1 96 122 82 25 0 0 66 97 98 17 49 0 52 50 32 44 47 25 0 53 +
15 52 77 0 50 99 0 17 32 0 52 49 34 27 26 33 0 0 -17 53 0 78 43 79 44 50 54 0 0
 -15 78 45 0 76 100 0 17 43 0 78 76 53 42 45 48 0 24 -17 79 0 78 53 76 20 41 74
 0 0 -17 41 0 101 60 55 39 79 74 0 72 +15 101 75 0 41 102 0 17 60 0 101 58 41 51
 72 18 0 69 -17 55 0 101 41 58 20 34 93 0 79 +17 58 0 101 55 60 10 30 59 0 0 -17
 34 0 52 32 50 10 55 93 0 58 -16 59 20 103 ?30 18 33 86 0 0 1 81 1 103 119 82 59
 0 0 92 84 104 16 18 74 105 ?72 93 59 6 0 0 1 16 33 16 106 ?26 59 62 87 0 0 1 81
 1 106 113 82 33 0 0 90 23 107 30 87 19 0 33 68 86 0 +.02 0 .01 0 1 0 30 68 14 0
 62 75 87 0 +0 0 .01 1 0 0 30 75 9 0 67 0 68 0 +0 .01 .01 0 -1 0 80 7 CCCCCDI12
 legal_owners0 16 1 lCZ1 82 108 109 9000 1 1 1 1 1 1 1 1 0 FFFFTFTFFFFFFFFF3 81
 1 90 112 82 54 0 0 105 106 110 81 1 23 114 82 9 0 0 106 80 111 84 255 32 107 0b
2a3274407aed4e172082dbf4432cda84 32 111 bb9c9bfa79c698c71f1933cfffb2975681 1 105
 111 82 18 0 0 0 90 112 84 32 110 e1f495862a1ace6219e45468398581fa84 32 112 38d7
809b25b021119f9f4a33ab18882b79 255 15 109 UGS/ObjectState81 1 92 118 82 74 0 0 9
5 103 113 81 1 84 120 82 48 0 0 103 66 114 84 32 104 f95142069bb8de1ac00acb1b8aa
5c54c81 1 66 121 82 62 0 0 84 96 115 84 32 114 5e2dab98d962b12fead58249e5b462798
4 32 115 1c7f8240ec619b6d08835e1719573f2e81 1 95 117 82 93 0 0 73 92 116 84 32 1
13 5efc6f384842474bc93f0e6f13ac888481 1 73 116 82 67 0 0 80 95 117 84 32 116 0c9
4ab6c4d768a54b7af63dfc2ef049d84 32 117 6964a920e800722074aaaee9d33d113c14 255 10
2 76 118 ?70 99 101 4 119 -0 0 70 99 22 81 1 118 133 120 102 121 0 122 123 124 1
4 70 24 123 ?100 102 29 4 125 +0 0 100 102 22 14 99 78 122 ?102 63 52 4 126 -0 0
 102 63 22 50 119 83 0 102 127 126 0 +.02 .01 .01 0 -1 0 0 0 -1 13 22 3 0 0 0 0
 0 0 8 15 14 15 82 128 ?63 0 71 4 5 -0 0 63 0 22 81 1 128 130 120 15 129 0 0 130
 131 14 63 80 130 ?99 15 46 4 17 -0 0 99 15 22 81 1 130 131 120 63 132 0 128 122
 133 50 17 85 0 63 126 5 0 +0 0 .01 0 1 0 0 0 1 50 126 84 0 99 119 17 0 +.02 0 .
01 -1 0 0 0 0 1 80 1 120 0 134 8001 0 0 0 0 3 5 0 0 0 FFFFTFTFFFFFFFFF2 81 1 132
 128 82 63 0 130 135 0 136 81 1 122 132 120 99 135 0 130 118 137 83 255 3 133 .6
11764705882353 .658823529411765 .670588235294118 81 1 135 127 82 99 0 122 138 13
2 139 83 3 137 .611764705882353 .658823529411765 .670588235294118 81 1 138 126 8
2 100 0 140 121 135 141 84 32 139 9d3883b13d595af472867345059f6d6a14 100 42 140
 ?0 70 78 4 127 -0 0 0 70 22 81 1 140 135 120 100 138 0 123 0 142 81 1 121 125 8
2 102 0 118 129 138 143 84 32 141 3c96f800ce76c571d364c2ff0967d74381 1 129 124 8
2 15 0 128 97 121 144 84 32 143 7e10e0a70ecdf7eb6817b0b93d7941e381 1 97 123 82 7
0 0 123 96 129 145 84 32 144 c516f1e80e2dfb2178e15a3f4ee6844181 1 123 134 120 70
 97 0 118 140 146 84 32 145 29bb849388a51915e549376b2505e48783 3 146 .6117647058
82353 .658823529411765 .670588235294118 83 3 142 .611764705882353 .6588235294117
65 .670588235294118 50 127 62 0 100 125 119 0 +0 0 0 0 0 1 1 0 0 50 125 25 0 70
 0 127 0 +0 0 .01 0 0 1 1 0 0 84 32 136 3f2f10dd2c92eae466f0cd6f5f3b50a779 15 13
4 SDL/TYSA_COLOUR83 3 131 .611764705882353 .658823529411765 .670588235294118 83
 3 124 .611764705882353 .658823529411765 .670588235294118 84 32 98 3c77151397400
cdfafac58bf2849e38384 32 83 8e48dfe233682fdd966554c80bf419b919 16 92 0 1 0 8 4 0
 S0 74 4 CI16 index_map_offset0 0 1 dCCZ20 14 4 0 0 12 132 140 2 0 0 0 0 0 0 0 0
 0 0 0 0 0 0 0 0 81 2 12 109 147 1 0 2 0 0 148 149 80 2 147 150 151 8004 0 0 0 0
 3 5 0 0 0 FFTFFFFFFFFFFFFF2 3 83 1 148 7830.64 84 8 149 Kg/Cu M 79 16 151 SDL/T
YSA_DENSITY80 1 11 152 153 9000 0 0 0 0 3 5 0 0 0 FFTFFFFFFFFFFFFF1 82 255 1 13
 129 79 24 153 UG2/BODY_COLOR_ATTRIBUTE1 0 
