**ABCDEFGHIJKLMNOPQRSTUVWXYZabcdefghijklmnopqrstuvwxyz**************************
**PARASOLID !"#$%&'()*+,-./:;<=>?@[\]^_`{|}~0123456789**************************
**PART1;
MC=unknown;
MC_MODEL=unknown;
MC_ID=unknown;
OS=unknown;
OS_RELEASE=unknown;
FRU=Murata Software Co., Ltd.;
APPL=Femtet;
SITE=Japan;
USER=unknown;
FORMAT=text;
GUISE=transmit;
KEY=Export;
FILE=Export.x_t;
DATE=2025/03/27;
**PART2;
SCH=SCH_3001220_30100;
USFLD_SIZE=0;
**PART3;
**END_OF_HEADER*****************************************************************
T51 : TRANSMIT FILE created by modeller version 300122017 SCH_3001220_301000 12
 1 66 2 3 0 0 0 0 0 0 1e3 1e-8 0 0 0 1 0 1 1 4 5 6 7 0 0 8 9 10 0 0 0 0 0 0 0 81
 1 2 66 11 1 12 0 0 0 0 70 3 0 4 T1 0 0 4 20 1 13 13 13 4 3 0 1 0 14 0 0 15 0 50
 5 54 0 14 16 0 0 +5e-4 5e-4 .001 0 0 1 1 0 0 30 6 62 0 9 17 0 0 +5e-4 0 .001 -1
 0 0 29 7 58 0 10 18 0 0 0 .001 19 8 1 0 1 15 0 19 V0 16 9 34 0 ?20 0 21 6 0 0 1
 18 10 23 0 20 0 22 7 ?1 17 20 0 23 24 25 10 26 9 0 27 +18 22 21 0 28 10 29 18 ?
1 17 28 0 30 31 32 22 27 21 0 33 +18 29 19 0 34 22 35 36 ?1 29 18 57 0 22 36 7 0
 .001 .001 29 36 56 0 29 37 18 .001 .001 .001 29 37 55 0 35 38 36 .001 0 .001 18
 35 17 0 26 29 39 37 ?1 29 38 41 0 40 41 37 0 0 0 18 40 11 0 24 42 43 38 ?1 29 4
1 40 0 42 44 38 0 .001 0 18 42 13 0 31 39 40 41 ?1 29 44 39 0 39 45 41 .001 .001
 0 18 39 15 0 46 35 42 44 ?1 29 45 38 0 43 0 44 .001 0 0 18 43 10 0 47 40 0 45 ?
1 17 47 0 48 49 50 43 25 51 0 52 -15 48 7 0 49 53 0 17 49 0 48 54 47 39 55 56 0
 0 +17 50 0 48 47 54 35 57 58 0 25 +17 25 0 23 20 52 35 47 51 0 0 +16 51 18 0 ?2
5 59 56 60 0 0 1 17 52 0 23 25 24 43 61 62 0 55 +15 23 32 0 25 63 0 17 24 0 23 5
2 20 40 32 64 0 65 -17 61 0 66 67 55 40 52 62 0 0 -16 62 12 0 ?52 68 0 69 0 0 1
 17 55 0 66 61 70 43 49 56 0 0 -15 66 8 0 55 71 0 17 70 0 66 55 67 39 72 73 0 49
 -16 56 6 0 ?49 51 73 74 0 0 1 16 73 16 0 ?72 56 68 75 0 0 1 30 74 43 0 56 69 75
 0 +.001 5e-4 0 0 1 0 30 69 42 0 62 0 74 0 +5e-4 0 0 1 0 0 30 75 44 0 73 74 76 0
 +5e-4 .001 0 -1 0 0 30 76 45 0 68 75 60 0 +0 5e-4 0 0 -1 0 16 68 14 0 ?65 73 62
 76 0 0 1 30 60 50 0 51 76 77 0 +.001 0 0 0 0 1 30 77 51 0 59 60 78 0 +.001 .001
 0 0 0 1 16 59 20 0 ?54 79 51 77 0 0 1 30 78 52 0 79 77 80 0 +0 .001 0 0 0 1 16
 79 22 0 ?81 64 59 78 0 0 1 30 80 53 0 64 78 82 0 +0 0 0 0 0 1 16 64 24 0 ?32 58
 79 80 0 0 1 30 82 59 0 58 80 83 0 +.001 5e-4 .001 0 -1 0 16 58 25 0 ?50 84 64 8
2 0 0 1 30 83 60 0 84 82 17 0 +5e-4 .001 .001 1 0 0 16 84 28 0 ?34 21 58 83 0 0
 1 30 17 61 0 21 83 6 0 +0 5e-4 .001 0 1 0 16 21 31 0 ?28 9 84 17 0 0 1 17 34 0
 85 46 81 29 33 84 0 57 +15 85 26 0 81 86 0 17 46 0 85 72 34 39 54 59 0 70 -17 8
1 0 85 34 72 22 31 79 0 0 +17 33 0 87 27 57 22 34 84 0 81 -17 57 0 87 33 26 29 5
0 58 0 54 -15 87 35 0 26 14 0 17 26 0 87 57 27 35 20 9 0 50 -17 54 0 48 50 49 29
 46 59 0 0 +17 27 0 87 26 33 10 28 21 0 32 -17 32 0 30 28 65 10 24 64 0 0 +15 30
 29 0 32 88 0 17 65 0 30 32 31 40 67 68 0 61 +17 31 0 30 65 28 42 81 79 0 72 -17
 67 0 66 70 61 42 65 68 0 0 -17 72 0 85 81 46 42 70 73 0 67 +14 88 30 0 ?86 63 3
0 4 89 +0 0 86 63 19 14 86 27 0 ?71 88 85 4 90 +0 0 71 88 19 14 63 33 0 ?88 14 2
3 4 16 +0 0 88 14 19 50 89 48 0 88 90 16 0 +0 5e-4 0 -1 0 0 0 0 1 13 19 4 0 0 0
 0 0 0 8 14 14 14 36 0 ?63 0 87 4 5 +0 0 63 0 19 50 90 47 0 86 91 89 0 +5e-4 .00
1 0 0 1 0 0 0 1 50 16 49 0 63 89 5 0 +5e-4 0 0 0 -1 0 0 0 -1 50 91 46 0 53 92 90
 0 +.001 5e-4 0 1 0 0 0 0 -1 14 53 2 0 ?0 71 48 4 91 +0 0 0 71 19 50 92 37 0 71
 0 91 0 +5e-4 5e-4 0 0 0 -1 -1 0 0 14 71 9 0 ?53 86 66 4 92 +0 0 53 86 19 19 15
 5 0 1 0 8 4 S0 74 20 13 4 0 0 93 94 12 2 0 0 0 0 0 0 0 0 0 0 0 0 0 0 0 0 81 1 9
3 63 95 1 0 94 0 0 96 81 1 94 64 97 1 93 12 0 0 98 81 1 12 65 99 1 94 2 0 0 0 80
 1 99 100 101 8017 0 0 0 0 0 0 0 0 0 TTTTTTTTTTTTTF3 79 13 101 SDL/TYSA_NAME80 1
 97 95 102 9000 0 0 0 0 3 5 0 0 0 FFTFTFTTFFFFFF2 83 3 98 .701960784313725 .7019
60784313725 1 79 18 102 MuRata/Gaudi_Color80 1 95 103 104 9000 0 0 0 0 3 5 0 0 0
 FFTFFFFFFFFFFF1 82 1 96 0 79 20 104 MuRata/Gaudi_BodyKey80 1 11 105 106 9000 0
 0 0 0 3 5 0 0 0 FFTFFFFFFFFFFF3 79 22 106 MuRata/Gaudi_BodyGroup1 0 
